<?xml version="1.0" encoding="utf-8"?>
<!-- Generator: Adobe Illustrator 27.0.0, SVG Export Plug-In . SVG Version: 6.00 Build 0)  -->
<svg version="1.1" id="图层_1" xmlns="http://www.w3.org/2000/svg" xmlns:xlink="http://www.w3.org/1999/xlink" x="0px" y="0px"
	 viewBox="0 0 1920 1080" style="enable-background:new 0 0 1920 1080;" xml:space="preserve">
<g>
	<path d="M928.43,521.71v-91.19c0-23.24-18.84-42.09-42.09-42.09h0v91.19C886.35,502.87,905.19,521.71,928.43,521.71z"/>
	<path d="M981.04,549.77v-91.19c0-23.24-18.84-42.09-42.09-42.09h0v91.19C938.96,530.93,957.8,549.77,981.04,549.77L981.04,549.77z"
		/>
	<path d="M991.57,402.05L991.57,402.05l0,84.17h0c23.24,0,42.09-18.84,42.09-42.09C1033.65,420.89,1014.81,402.05,991.57,402.05z"/>
	<g>
		<polygon points="748.98,591.86 730.08,591.86 730.08,689.03 788.25,689.03 788.25,672.39 748.98,672.39 		"/>
		<path d="M862.93,625.47c-3.37-3.42-7.5-6.14-12.38-8.19c-4.88-2.04-10.38-3.06-16.51-3.06c-6.12,0-11.65,1.02-16.57,3.06
			c-4.93,2.04-9.08,4.77-12.45,8.19c-3.37,3.42-5.97,7.39-7.79,11.91c-1.82,4.53-2.73,9.27-2.73,14.24v2.8
			c0,4.79,0.87,9.43,2.6,13.91c1.73,4.48,4.28,8.43,7.65,11.85c3.37,3.42,7.5,6.17,12.38,8.25c4.88,2.08,10.52,3.13,16.91,3.13
			c6.3,0,11.91-1.04,16.84-3.13c4.93-2.08,9.05-4.84,12.38-8.25c3.33-3.42,5.86-7.37,7.59-11.85c1.73-4.48,2.6-9.12,2.6-13.91v-2.8
			c0-4.97-0.91-9.72-2.73-14.24C868.89,632.86,866.3,628.89,862.93,625.47z M853.54,662.01c-0.93,2.75-2.29,5.15-4.06,7.19
			c-1.78,2.04-3.95,3.64-6.52,4.79c-2.58,1.15-5.55,1.73-8.92,1.73c-3.37,0-6.37-0.58-8.99-1.73c-2.62-1.15-4.82-2.75-6.59-4.79
			c-1.78-2.04-3.13-4.44-4.06-7.19c-0.93-2.75-1.4-5.77-1.4-9.05c0-3.28,0.49-6.32,1.46-9.12c0.98-2.8,2.35-5.21,4.13-7.26
			c1.77-2.04,3.97-3.64,6.59-4.79c2.62-1.15,5.57-1.73,8.85-1.73c3.28,0,6.21,0.58,8.79,1.73c2.57,1.15,4.75,2.75,6.52,4.79
			c1.77,2.04,3.15,4.46,4.13,7.26c0.98,2.8,1.46,5.84,1.46,9.12C854.94,656.24,854.47,659.26,853.54,662.01z"/>
		<polygon points="915.93,673.86 912.87,673.86 895.7,616.75 876.66,616.75 899.29,689.03 928.98,689.03 948.54,616.75 
			930.71,616.75 		"/>
		<path d="M1021.75,600.59c-6.66-5.82-16.15-8.73-28.49-8.73h-33.55v97.18h18.9v-29.55h14.64c6.12,0,11.58-0.77,16.37-2.31
			c4.79-1.54,8.81-3.73,12.05-6.55c3.24-2.82,5.72-6.26,7.45-10.32c1.73-4.06,2.6-8.6,2.6-13.63v-2.12
			C1031.73,614.4,1028.4,606.42,1021.75,600.59z M1007.97,638.24c-3.06,3.25-7.43,4.87-13.11,4.87h-16.24v-34.88h16.24
			c5.68,0,10.05,1.58,13.11,4.74c3.06,3.16,4.59,7.37,4.59,12.63C1012.56,630.78,1011.03,634.99,1007.97,638.24z"/>
		<path d="M1101.18,625.27c-3.02-3.37-6.72-6.06-11.12-8.05c-4.39-2-9.52-3-15.38-3c-5.95,0-11.18,1.04-15.71,3.13
			c-4.53,2.09-8.32,4.88-11.38,8.39c-3.06,3.51-5.37,7.5-6.92,11.98c-1.55,4.48-2.33,9.12-2.33,13.91v2.53
			c0,4.62,0.78,9.16,2.33,13.64c1.55,4.48,3.86,8.48,6.92,11.98c3.06,3.51,6.92,6.35,11.58,8.52c4.66,2.17,10.09,3.26,16.31,3.26
			c4.44,0,8.54-0.6,12.31-1.8c3.77-1.2,7.1-2.86,9.98-4.99c2.88-2.13,5.28-4.73,7.19-7.79c1.91-3.06,3.26-6.46,4.06-10.18h-17.04
			c-0.8,2.66-2.62,4.9-5.46,6.72c-2.84,1.82-6.52,2.73-11.05,2.73c-6.12,0-10.78-1.73-13.98-5.19c-3.19-3.46-5.1-8.03-5.72-13.71
			h54.44v-6.66c0-4.79-0.76-9.38-2.26-13.78C1106.45,632.53,1104.19,628.64,1101.18,625.27z M1056.18,646.04
			c0.97-5.24,2.99-9.3,6.06-12.18c3.06-2.88,7.21-4.33,12.45-4.33c5.24,0,9.34,1.44,12.31,4.33c2.97,2.88,4.81,6.94,5.52,12.18
			H1056.18z"/>
		<path d="M1183.27,622.5c-4.44-5.52-10.96-8.28-19.57-8.28h-0.8c-13.4,0-21.65,6.79-24.76,20.37v-17.84h-14.64v72.28h18.5v-42.66
			c0-4.72,1.4-8.49,4.19-11.3c2.8-2.81,6.46-4.21,10.98-4.21c4.44,0,7.92,1.36,10.45,4.08c2.53,2.72,3.79,6.35,3.79,10.9v43.19h18.5
			v-41.55C1189.92,636.36,1187.7,628.03,1183.27,622.5z"/>
	</g>
</g>
</svg>
