<?xml version="1.0" encoding="utf-8"?>
<!-- Generator: Adobe Illustrator 27.0.0, SVG Export Plug-In . SVG Version: 6.00 Build 0)  -->
<svg version="1.1" id="图层_1" xmlns="http://www.w3.org/2000/svg" xmlns:xlink="http://www.w3.org/1999/xlink" x="0px" y="0px"
	 viewBox="0 0 1261.75 1080" style="enable-background:new 0 0 1261.75 1080;" xml:space="preserve">
<g>
	<g>
		<path d="M315.45,0L315.45,0v390.53c0,99.54,80.7,180.24,180.24,180.24l0,0V180.24C495.69,80.7,414.99,0,315.45,0z"/>
		<path d="M540.74,120.16L540.74,120.16V510.7c0,99.54,80.7,180.24,180.24,180.24l0,0V300.4C721,200.86,640.31,120.16,540.74,120.16
			z"/>
		<path d="M766.06,58.31L766.06,58.31v360.5l0,0c99.54,0,180.24-80.7,180.24-180.24l0,0C946.3,139.01,865.61,58.31,766.06,58.31z"/>
	</g>
	<g>
		<g>
			<path d="M0,1073.07V806.43h51.87v220.98h107.75v45.65L0,1073.07L0,1073.07z"/>
			<path d="M285.26,1080c-17.54,0-32.99-2.86-46.38-8.59c-13.4-5.73-24.72-13.27-33.97-22.65c-9.25-9.37-16.25-20.2-21-32.51
				c-4.75-12.29-7.12-25.02-7.12-38.17v-7.68c0-13.63,2.5-26.66,7.48-39.08c4.98-12.43,12.11-23.31,21.36-32.7
				c9.25-9.37,20.63-16.86,34.15-22.47c13.52-5.59,28.68-8.41,45.47-8.41c16.79,0,31.9,2.8,45.29,8.41
				c13.39,5.61,24.7,13.09,33.97,22.47c9.25,9.38,16.38,20.27,21.36,32.7c4.98,12.43,7.48,25.45,7.48,39.08v7.68
				c0,13.15-2.37,25.88-7.12,38.17s-11.68,23.13-20.82,32.51c-9.13,9.38-20.45,16.93-33.97,22.65
				C317.94,1077.14,302.56,1080,285.26,1080z M285.26,1036.53c9.25,0,17.41-1.59,24.47-4.75c7.07-3.16,13.02-7.55,17.9-13.15
				c4.86-5.59,8.59-12.18,11.14-19.72c2.56-7.55,3.84-15.82,3.84-24.84c0-9-1.34-17.34-4.02-25.02c-2.68-7.68-6.45-14.3-11.32-19.91
				c-4.88-5.59-10.84-9.98-17.9-13.15c-7.07-3.16-15.11-4.75-24.11-4.75c-9.02,0-17.11,1.59-24.29,4.75
				c-7.18,3.16-13.2,7.55-18.09,13.15c-4.88,5.61-8.65,12.23-11.32,19.91c-2.68,7.68-4.02,16.02-4.02,25.02
				c0,9.02,1.27,17.29,3.84,24.84c2.56,7.55,6.27,14.13,11.14,19.72c4.86,5.61,10.89,9.99,18.09,13.15
				C267.79,1034.96,276,1036.53,285.26,1036.53z"/>
			<path d="M464.3,1073.07l-62.08-198.33h52.24l47.12,156.7h8.41l40.54-156.7h48.91l-53.69,198.33H464.3z"/>
			<path d="M630.08,1073.07V806.43h92.05c33.84,0,59.9,7.99,78.17,23.96c18.27,15.98,27.4,37.88,27.4,65.72v5.81
				c0,13.8-2.38,26.28-7.12,37.4c-4.75,11.14-11.57,20.57-20.45,28.31c-8.89,7.74-19.91,13.75-33.06,17.97
				c-13.15,4.24-28.13,6.35-44.92,6.35h-40.18v81.08h-51.89V1073.07z M681.95,851.36v95.69h44.56c15.59,0,27.58-4.45,35.97-13.35
				c8.41-8.9,12.61-20.45,12.61-34.67c0-14.45-4.2-25.99-12.61-34.67c-8.41-8.67-20.4-13.01-35.97-13.01H681.95z"/>
			<path d="M947.74,1080c-17.04,0-31.95-2.98-44.74-8.95c-12.77-5.96-23.38-13.75-31.77-23.38c-8.41-9.61-14.74-20.57-19-32.88
				c-4.27-12.29-6.39-24.77-6.39-37.45v-6.93c0-13.15,2.13-25.86,6.39-38.17c4.25-12.29,10.59-23.25,19-32.88
				c8.41-9.61,18.81-17.29,31.22-23.02c12.43-5.73,26.79-8.59,43.1-8.59c16.07,0,30.13,2.75,42.19,8.22
				c12.06,5.48,22.22,12.84,30.5,22.09c8.27,9.25,14.48,19.91,18.63,31.95c4.14,12.05,6.21,24.65,6.21,37.81v18.27H893.7
				c1.7,15.59,6.93,28.13,15.7,37.63c8.77,9.5,21.54,14.25,38.36,14.25c12.43,0,22.52-2.5,30.31-7.48
				c7.79-4.98,12.79-11.14,14.97-18.45h46.74c-2.18,10.23-5.91,19.54-11.14,27.95c-5.25,8.41-11.81,15.52-19.72,21.36
				c-7.91,5.84-17.04,10.41-27.4,13.7C971.17,1078.36,959.92,1080,947.74,1080z M945.54,909.8c-14.36,0-25.75,3.95-34.15,11.86
				c-8.41,7.91-13.95,19.06-16.61,33.42h99.71c-1.95-14.36-7-25.5-15.16-33.42C971.17,913.76,959.92,909.8,945.54,909.8z"/>
			<path d="M1079.49,1073.07V874.74h40.18v48.95c8.52-37.26,31.17-55.88,67.94-55.88h2.18c23.61,0,41.52,7.58,53.69,22.72
				c12.18,15.16,18.27,38.01,18.27,68.55v113.99h-50.77V954.54c0-12.48-3.47-22.44-10.41-29.9c-6.93-7.46-16.5-11.19-28.68-11.19
				c-12.43,0-22.47,3.86-30.13,11.57c-7.68,7.71-11.5,18.04-11.5,31.01v117.05h-50.78V1073.07z"/>
		</g>
	</g>
</g>
</svg>
