<svg class="svg-canvas" viewBox="76.78922239902316 -21.318523400496787 642.6370447369577 642.6370447369577" width="1200" height="1200" preserveAspectRatio="none" version="1.1" xmlns="http://www.w3.org/2000/svg" xmlns:xlink="http://www.w3.org/1999/xlink" style="background:#e8eaf9">
        <!--滤镜-->
        <defs></defs>

        <!-- 背景 -->
        

        <!--元素-->
        
                <g id="shape_WGq6Ye8mnL" ref="shape_WGq6Ye8mnL" key="shape_WGq6Ye8mnL" mask="">
                  <g transform="translate(120,168.1356297095) rotate(0,128.07379386624,131.8643702905) scale(1,1)" style="opacity: 1;mix-blend-mode: undefined;" filter="">
                    <!--普通元素-->
                    <svg version="1.1" id="图层_1" xmlns="http://www.w3.org/2000/svg" xmlns:xlink="http://www.w3.org/1999/xlink" x="0px" y="0px" width="256.14758773247" height="263.72874058101" viewBox="15.099761962890625 21.3245849609375 152.90023803710938 157.42559814453125" style="enable-background:new 0 0 200 200;" xml:space="preserve" class="style-removed" preserveAspectRatio="none" data-parent="shape_WGq6Ye8mnL">

<path d="M103.5,178.6c-20.7,1.4-46.1-7-63.1-24.7C18,130.7,10.1,104.6,18.2,73.2c1.5-5.9,4.9-9.1,11-8.4
	c9.6,1.1,14,6.8,12.1,15.7c-7,33.4,13.4,69.6,45.7,81.3c27.3,9.8,52.1,5.4,74.6-12.9c1.1-0.9,5.3-4.1,6.4-5
	C162.9,155.3,137.1,176.4,103.5,178.6z" fill="#1730C6" stroke-width="0"></path>
<path d="M45,94.7C41.6,65,50.4,41.4,74.4,24.2c4.2-3.4,10.4-4.6,14.1,1c3.7,5.6,3.1,10.9-2.2,15
	C70.5,52.4,62.9,68.8,61.7,89c-1.6,27.5,17.6,55.4,43.4,62.3c6.2,1.7,13,2.3,20.7,3.3c-6.3,1.1-13.3,1.7-19.2,1.1
	c-19-2.1-35.7-10.3-46.9-26.5C53.7,120.5,46.7,109.9,45,94.7z" fill="#033CDD" stroke-width="0"></path>
<path d="M82.3,127.2c-13.7-17.6-16.1-38-8.5-59.4c11.4-32,46.6-47.7,76.5-34.5c7.3,3.2,8.9,5.8,6.9,11.3
	c-2.4,6.6-5.8,8-13.1,5.4c-22.6-8-45-1-58.5,19.1c-10.3,15.4-12,32.3-5.2,49.9c0.6,1.5,1.1,2.9,1.7,4.3c0.5,1.1,3.5,7.1,3.5,7.1
	S84,129.3,82.3,127.2z" fill="#15BCC8" stroke-width="0"></path>
</svg>
                  </g>
                </g>
                <g id="shape_YB19zCWwaG" ref="shape_YB19zCWwaG" key="shape_YB19zCWwaG" mask="">
                  <g transform="translate(284.15185809878,253.86501285245998) rotate(0,174,122.5) scale(1,1)" style="opacity: 1;mix-blend-mode: undefined;" filter="">
                    <!--普通元素-->
                    <svg xmlns="http://www.w3.org/2000/svg" version="1.1" xmlns:xlink="http://www.w3.org/1999/xlink" width="348" height="245" viewBox="0 0 348 245" data-ligature="true" data-parent="shape_YB19zCWwaG"><g data-role="text" data-width="115.1513671875" data-height="35" transform="translate(105, 105)"><path d="M8.27-21.02Q10.66-21.02 12.75-19.77L12.75-19.77Q14.77-18.58 15.35-16.92L15.35-16.92L11.96-16.01Q11.67-16.56 10.63-17.02L10.63-17.02Q9.48-17.53 8.27-17.53L8.27-17.53Q4.99-17.53 4.99-16.01L4.99-16.01Q4.99-15.16 6.73-14.70L6.73-14.70Q7.31-14.53 8.51-14.30L8.51-14.30Q10.01-14.01 10.54-13.89L10.54-13.89Q13.09-13.33 14.37-12.42L14.37-12.42Q16.12-11.18 16.12-9.04L16.12-9.04Q16.12-6.48 14.03-5.01L14.03-5.01Q12.03-3.59 8.70-3.59L8.70-3.59Q5.73-3.59 3.45-5.01L3.45-5.01Q1.23-6.39 0.68-8.43L0.68-8.43L4.12-9.04Q4.44-8.22 5.76-7.66L5.76-7.66Q7.08-7.08 8.70-7.08L8.70-7.08Q12.63-7.08 12.63-9.04L12.63-9.04Q12.63-10.01 10.89-10.53L10.89-10.53Q11.04-10.48 7.06-11.30L7.06-11.30Q4.49-11.83 3.25-12.68L3.25-12.68Q1.50-13.88 1.50-16.01L1.50-16.01Q1.50-18.39 3.44-19.74L3.44-19.74Q5.26-21.02 8.27-21.02L8.27-21.02Z" transform="translate(0 28) " fill="rgb(23, 48, 198)" stroke="rgb(23, 48, 198)" stroke-width="0.058" data-glyph-w="16.79931640625" data-glyph-h="36.4697265625" data-glyph-ascender="29.326171875" data-glyph-descender="-7.1435546875" data-kerning="0"></path><path d="M4.68-13.23L4.68-13.23L4.68-4.03L1.20-4.03L1.20-28.44L4.68-28.44L4.68-19.28Q6.72-21.02 9.48-21.02L9.48-21.02Q12.54-21.02 14.71-18.87L14.71-18.87Q16.88-16.71 16.88-13.65L16.88-13.65L16.88-4.03L13.40-4.03L13.40-13.23Q13.40-15.02 12.13-16.29L12.13-16.29Q10.85-17.57 9.04-17.57L9.04-17.57Q7.25-17.57 5.96-16.29L5.96-16.29Q4.68-15.02 4.68-13.23Z" transform="translate(16.79931640625 28) " fill="rgb(23, 48, 198)" stroke="rgb(23, 48, 198)" stroke-width="0.058" data-glyph-w="18.0810546875" data-glyph-h="36.4697265625" data-glyph-ascender="29.326171875" data-glyph-descender="-7.1435546875" data-kerning="0"></path><path d="M8.97-17.53Q6.99-17.53 5.57-16.01L5.57-16.01Q4.17-14.48 4.17-12.30L4.17-12.30Q4.17-10.13 5.57-8.61L5.57-8.61Q6.99-7.08 8.97-7.08L8.97-7.08Q10.95-7.08 12.36-8.61L12.36-8.61Q13.76-10.13 13.76-12.30L13.76-12.30Q13.76-14.48 12.36-16.01L12.36-16.01Q10.95-17.53 8.97-17.53L8.97-17.53ZM13.76-19.29L13.76-19.29L13.76-20.59L17.24-20.59L17.24-4.03L13.76-4.03L13.76-5.31Q11.64-3.59 8.85-3.59L8.85-3.59Q5.47-3.59 3.08-6.15L3.08-6.15Q0.68-8.70 0.68-12.30L0.68-12.30Q0.68-15.93 3.08-18.47L3.08-18.47Q5.47-21.02 8.85-21.02L8.85-21.02Q11.64-21.02 13.76-19.29Z" transform="translate(34.88037109375 28) " fill="rgb(23, 48, 198)" stroke="rgb(23, 48, 198)" stroke-width="0.058" data-glyph-w="18.43994140625" data-glyph-h="36.4697265625" data-glyph-ascender="29.326171875" data-glyph-descender="-7.1435546875" data-kerning="0"></path><path d="M4.68-13.18L4.68-13.18L4.68-4.03L1.20-4.03L1.20-20.59L4.68-20.59L4.68-19.40Q6.75-21.02 9.48-21.02L9.48-21.02Q9.91-21.02 10.36-20.99L10.36-20.99L10.36-17.35Q9.72-17.53 9.04-17.53L9.04-17.53Q7.25-17.53 5.96-16.27L5.96-16.27Q4.68-14.99 4.68-13.18Z" transform="translate(53.3203125 28) " fill="rgb(23, 48, 198)" stroke="rgb(23, 48, 198)" stroke-width="0.058" data-glyph-w="11.0400390625" data-glyph-h="36.4697265625" data-glyph-ascender="29.326171875" data-glyph-descender="-7.1435546875" data-kerning="0"></path><path d="M17.94-10.56L4.46-10.56Q4.84-9.48 5.71-8.61L5.71-8.61Q7.23-7.08 9.40-7.08L9.40-7.08Q12.12-7.08 13.69-9.31L13.69-9.31L16.54-7.31Q13.95-3.59 9.40-3.59L9.40-3.59Q5.79-3.59 3.25-6.15L3.25-6.15Q0.68-8.70 0.68-12.30L0.68-12.30Q0.68-15.93 3.25-18.47L3.25-18.47Q5.79-21.02 9.40-21.02L9.40-21.02Q13.02-21.02 15.57-18.47L15.57-18.47Q18.12-15.93 18.12-12.30L18.12-12.30Q18.12-11.43 17.94-10.56L17.94-10.56ZM4.46-14.05L14.36-14.05Q13.98-15.14 13.11-16.01L13.11-16.01Q11.57-17.53 9.40-17.53L9.40-17.53Q7.23-17.53 5.71-16.01L5.71-16.01Q4.84-15.14 4.46-14.05L4.46-14.05Z" transform="translate(64.3603515625 28) " fill="rgb(23, 48, 198)" stroke="rgb(23, 48, 198)" stroke-width="0.058" data-glyph-w="18.798828125" data-glyph-h="36.4697265625" data-glyph-ascender="29.326171875" data-glyph-descender="-7.1435546875" data-kerning="0"></path><path d="M18.20-10.56L6.90-10.56L4.14-4.03L0.34-4.03L10.70-28.44L14.39-28.44L24.75-4.03L20.97-4.03L18.20-10.56ZM8.39-14.05L16.71-14.05L12.54-23.86L8.39-14.05Z" transform="translate(83.1591796875 28) " fill="rgb(23, 48, 198)" stroke="rgb(23, 48, 198)" stroke-width="0.058" data-glyph-w="25.087890625" data-glyph-h="36.4697265625" data-glyph-ascender="29.326171875" data-glyph-descender="-7.1435546875" data-kerning="0"></path><path d="M5.20-4.03L5.20-28.44L1.71-28.44L1.71-4.03L5.20-4.03Z" transform="translate(108.2470703125 28) " fill="rgb(23, 48, 198)" stroke="rgb(23, 48, 198)" stroke-width="0.058" data-glyph-w="6.904296875" data-glyph-h="36.4697265625" data-glyph-ascender="29.326171875" data-glyph-descender="-7.1435546875" data-kerning="0"></path></g></svg>
                  </g>
                </g>
                <g id="shape_bgWDEJoTig" ref="shape_bgWDEJoTig" key="shape_bgWDEJoTig" mask="">
                  <g transform="translate(-68.48251559012002,-79.43304156221004) rotate(0,534.56800796533,373.56800796533) scale(1,1)" style="opacity: 1;mix-blend-mode: undefined;" filter="">
                    <!--普通元素-->
                    <svg xmlns="http://www.w3.org/2000/svg" version="1.1" xmlns:xlink="http://www.w3.org/1999/xlink" width="1069.13601593066" height="747.13601593066" viewBox="0 0 1069.13601593066 747.13601593066" data-ligature="true" data-parent="shape_bgWDEJoTig"><g data-role="text" data-width="427.44" data-height="106" transform="translate(320.56800796533, 320.56800796533)"><path d="M103.55-64.44L83.46-64.44L83.46-43.06L101.41-43.06L101.41-37.08L83.46-37.08L83.46-15.71L101.41-15.71L101.41-9.72L83.46-9.72L83.46 18.06L66.57 18.06L66.57-64.44L64.97-64.44L59.09-37.40L42.21-37.40L52.04-82.18L68.82-82.18L66.25-70.42L103.55-70.42L103.55-64.44ZM11.65-79.50L35.48-79.50Q38.26-79.50 40.13-77.63Q42.00-75.76 42.00-72.99L42.00-72.99L42.00 10.47Q42.00 13.25 40.13 15.12Q38.26 16.99 35.48 16.99L35.48 16.99L11.65 16.99Q8.87 16.99 7.00 15.12Q5.13 13.25 5.13 10.47L5.13 10.47L5.13-72.99Q5.13-75.76 7.00-77.63Q8.87-79.50 11.65-79.50L11.65-79.50ZM25.22-73.52L21.91-73.52Q21.27-73.52 20.78-73.04Q20.30-72.56 20.30-71.92L20.30-71.92L20.30-34.30L26.82-34.30L26.82-71.92Q26.82-72.56 26.34-73.04Q25.86-73.52 25.22-73.52L25.22-73.52ZM21.91 11.01L25.22 11.01Q25.86 11.01 26.34 10.53Q26.82 10.04 26.82 9.40L26.82 9.40L26.82-28.32L20.30-28.32L20.30 9.40Q20.30 10.04 20.78 10.53Q21.27 11.01 21.91 11.01L21.91 11.01Z" transform="translate(0 88) " fill="rgb(23, 48, 198)" stroke="rgb(23, 48, 198)" stroke-width="0.178" data-glyph-w="106.86" data-glyph-h="111.88242" data-glyph-ascender="91.79274" data-glyph-descender="-20.089679999999998" data-kerning="0"></path><path d="M15.17-80.47L91.90-80.47Q94.68-80.47 96.55-78.60Q98.42-76.73 98.42-73.95L98.42-73.95L98.42 9.51Q98.42 12.29 96.55 14.16Q94.68 16.03 91.90 16.03L91.90 16.03L15.17 16.03Q12.40 16.03 10.53 14.16Q8.66 12.29 8.66 9.51L8.66 9.51L8.66-73.95Q8.66-76.73 10.53-78.60Q12.40-80.47 15.17-80.47L15.17-80.47ZM80.14-74.48L26.93-74.48Q26.29-74.48 25.81-74.00Q25.33-73.52 25.33-72.88L25.33-72.88L25.33-35.26L81.75-35.26L81.75-72.88Q81.75-73.52 81.27-74.00Q80.79-74.48 80.14-74.48L80.14-74.48ZM26.93 10.04L80.14 10.04Q80.79 10.04 81.27 9.56Q81.75 9.08 81.75 8.44L81.75 8.44L81.75-29.28L25.33-29.28L25.33 8.44Q25.33 9.08 25.81 9.56Q26.29 10.04 26.93 10.04L26.93 10.04Z" transform="translate(106.86 88) " fill="rgb(23, 48, 198)" stroke="rgb(23, 48, 198)" stroke-width="0.178" data-glyph-w="106.86" data-glyph-h="111.88242" data-glyph-ascender="91.79274" data-glyph-descender="-20.089679999999998" data-kerning="0"></path><path d="M84.53-74.16L103.55-74.16L103.55-68.28L84.53-68.28L84.53-59.73L67.64-59.73L67.64-68.28L39.22-68.28L39.22-59.73L22.33-59.73L22.33-68.28L3.31-68.28L3.31-74.16L22.33-74.16L22.33-82.18L39.22-82.18L39.22-74.16L67.64-74.16L67.64-82.18L84.53-82.18L84.53-74.16ZM59.95-55.35L94.68-55.35Q97.46-55.35 99.33-53.48Q101.20-51.61 101.20-48.84L101.20-48.84L101.20 11.11Q101.20 13.89 99.33 15.76Q97.46 17.63 94.68 17.63L94.68 17.63L76.19 17.63L72.99 11.65L82.92 11.65Q83.56 11.65 84.05 11.17Q84.53 10.69 84.53 10.04L84.53 10.04L84.53-9.30L70.10-9.30L70.10 3.53Q70.10 5.77 68.98 7.59Q67.86 9.40 65.72 10.47L65.72 10.47L50.22 17.95L50.22 11.75L51.83 10.90Q53.43 10.04 53.43 8.34L53.43 8.34L53.43-48.84Q53.43-51.61 55.30-53.48Q57.17-55.35 59.95-55.35L59.95-55.35ZM13.14-53.54L39.86-53.54Q42.64-53.54 44.51-51.67Q46.38-49.80 46.38-47.02L46.38-47.02L46.38 7.05Q46.38 9.94 44.51 11.75Q42.64 13.57 39.86 13.57L39.86 13.57L13.14 13.57Q10.37 13.57 8.50 11.75Q6.63 9.94 6.63 7.05L6.63 7.05L6.63-47.02Q6.63-49.80 8.50-51.67Q10.37-53.54 13.14-53.54L13.14-53.54ZM82.92-49.37L71.70-49.37Q71.06-49.37 70.58-48.89Q70.10-48.41 70.10-47.77L70.10-47.77L70.10-35.26L84.53-35.26L84.53-47.77Q84.53-48.41 84.05-48.89Q83.56-49.37 82.92-49.37L82.92-49.37ZM29.49-47.55L23.51-47.55Q22.87-47.55 22.39-47.07Q21.91-46.59 21.91-45.95L21.91-45.95L21.91-22.97L31.10-22.97L31.10-45.95Q31.10-46.59 30.62-47.07Q30.13-47.55 29.49-47.55L29.49-47.55ZM70.10-15.28L84.53-15.28L84.53-29.28L70.10-29.28L70.10-15.28ZM23.51 7.59L29.49 7.59Q30.13 7.59 30.62 7.11Q31.10 6.63 31.10 5.98L31.10 5.98L31.10-16.99L21.91-16.99L21.91 5.98Q21.91 6.63 22.39 7.11Q22.87 7.59 23.51 7.59L23.51 7.59Z" transform="translate(213.72 88) " fill="rgb(23, 48, 198)" stroke="rgb(23, 48, 198)" stroke-width="0.178" data-glyph-w="106.86" data-glyph-h="111.88242" data-glyph-ascender="91.79274" data-glyph-descender="-20.089679999999998" data-kerning="0"></path><path d="M76.51-70.85L76.51-48.30L103.55-48.30L103.55-42.32L98.95-42.32L98.95 17.10L83.14 17.10L83.14-42.32L76.51-42.32L76.51 0.75Q76.51 5.45 72.45 8.01L72.45 8.01L56.21 18.06L56.21 14.75L44.67 14.75L40.93-10.15L53.43-10.15L56.32 10.69L58.88 8.98Q60.16 8.01 60.16 6.63L60.16 6.63L60.16-71.92Q60.16-74.70 62.03-76.57Q63.90-78.44 66.68-78.44L66.68-78.44L83.03-78.44Q83.89-78.44 84.58-78.81Q85.27-79.18 85.59-80.04L85.59-80.04L86.66-82.50L103.55-82.50L101.09-76.83Q100.23-74.70 98.31-73.57Q96.39-72.45 94.14-72.45L94.14-72.45L78.11-72.45Q77.47-72.45 76.99-71.97Q76.51-71.49 76.51-70.85L76.51-70.85ZM53.43-73.31L53.43-67.32L5.98-67.32L5.98-73.31L23.08-73.31L19.88-82.18L36.76-82.18L39.97-73.31L53.43-73.31ZM52.90-17.74L38.79-17.74L38.79 11.43Q38.79 14.21 36.92 16.08Q35.05 17.95 32.27 17.95L32.27 17.95L19.66 17.95L16.46 11.97L20.30 11.97Q20.94 11.97 21.43 11.49Q21.91 11.01 21.91 10.37L21.91 10.37L21.91-17.74L6.52-17.74L6.52-23.72L21.91-23.72L21.91-38.04L3.31-38.04L3.31-44.03L12.50-44.03L7.59-61.55L23.40-61.55L28.32-44.03L31.10-44.03L36.01-61.55L51.83-61.55L46.91-44.03L56.10-44.03L56.10-38.04L38.79-38.04L38.79-23.72L52.90-23.72L52.90-17.74ZM6.73-10.15L19.23-10.15L15.49 16.78L3.31 16.78L6.73-10.15Z" transform="translate(320.58 88) " fill="rgb(23, 48, 198)" stroke="rgb(23, 48, 198)" stroke-width="0.178" data-glyph-w="106.86" data-glyph-h="111.88242" data-glyph-ascender="91.79274" data-glyph-descender="-20.089679999999998" data-kerning="0"></path></g></svg>
                  </g>
                </g>
      </svg>