<?xml version="1.0" encoding="utf-8"?>
<!-- Generator: Adobe Illustrator 27.0.0, SVG Export Plug-In . SVG Version: 6.00 Build 0)  -->
<svg version="1.1" id="图层_1" xmlns="http://www.w3.org/2000/svg" xmlns:xlink="http://www.w3.org/1999/xlink" x="0px" y="0px"
	 viewBox="0 0 1920 477.03" style="enable-background:new 0 0 1920 477.03;" xml:space="preserve">
<g>
	<path d="M0,0L0,0v269.62c0,68.71,55.7,124.45,124.45,124.45l0,0V124.45C124.45,55.73,68.74,0,0,0z"/>
	<path d="M155.55,82.96L155.55,82.96v269.62c0,68.71,55.7,124.45,124.45,124.45l0,0V207.41C280,138.67,224.29,82.96,155.55,82.96z"
		/>
	<path d="M311.1,40.27v248.86c68.71,0,124.45-55.7,124.45-124.45S379.84,40.27,311.1,40.27z"/>
	<polygon points="616.32,91.12 560.44,91.12 560.44,378.42 732.43,378.42 732.43,329.22 616.32,329.22 	"/>
	<path d="M953.23,190.5c-9.96-10.11-22.17-18.15-36.6-24.22c-14.43-6.03-30.69-9.05-48.81-9.05c-18.09,0-34.45,3.02-48.99,9.05
		c-14.58,6.03-26.85,14.1-36.81,24.22c-9.96,10.11-17.65,21.85-23.03,35.21c-5.38,13.39-8.07,27.41-8.07,42.1v8.28
		c0,14.16,2.57,27.88,7.69,41.13c5.11,13.25,12.65,24.92,22.62,35.04s22.17,18.24,36.6,24.39c14.43,6.15,31.1,9.25,50,9.25
		c18.63,0,35.21-3.07,49.79-9.25c14.58-6.15,26.76-14.31,36.6-24.39c9.85-10.11,17.33-21.79,22.44-35.04
		c5.11-13.25,7.69-26.96,7.69-41.13v-8.28c0-14.69-2.69-28.74-8.07-42.1C970.88,212.35,963.19,200.61,953.23,190.5z M925.47,298.53
		c-2.75,8.13-6.77,15.23-12,21.26c-5.26,6.03-11.68,10.76-19.28,14.16c-7.63,3.4-16.41,5.11-26.37,5.11
		c-9.96,0-18.83-1.71-26.58-5.11c-7.75-3.4-14.25-8.13-19.48-14.16c-5.26-6.03-9.25-13.13-12-21.26
		c-2.75-8.13-4.14-17.06-4.14-26.76c0-9.7,1.45-18.69,4.32-26.96c2.9-8.28,6.95-15.4,12.21-21.44c5.23-6.03,11.74-10.76,19.48-14.16
		c7.75-3.4,16.47-5.11,26.17-5.11c9.7,0,18.36,1.71,25.99,5.11c7.6,3.4,14.04,8.13,19.28,14.16c5.23,6.03,9.31,13.19,12.21,21.44
		c2.9,8.28,4.32,17.27,4.32,26.96C929.61,281.47,928.25,290.4,925.47,298.53z"/>
	<polygon points="1109.93,333.57 1100.89,333.57 1050.12,164.72 993.82,164.72 1060.76,378.42 1148.52,378.42 1206.38,164.72 
		1153.63,164.72 	"/>
	<path d="M1422.81,116.94c-19.69-17.21-47.75-25.81-84.24-25.81h-99.2v287.33h55.88v-87.37h43.29c18.09,0,34.24-2.28,48.4-6.86
		c14.16-4.55,26.05-11.03,35.63-19.37c9.58-8.34,16.91-18.51,22.03-30.51c5.11-12,7.69-25.43,7.69-40.3v-6.27
		C1452.31,157.77,1442.5,134.17,1422.81,116.94z M1382.06,228.25c-9.05,9.61-21.97,14.4-38.76,14.4h-48.02V139.53h48.02
		c16.79,0,29.71,4.67,38.76,14.01c9.05,9.34,13.57,21.79,13.57,37.34C1395.64,206.2,1391.11,218.65,1382.06,228.25z"/>
	<path d="M1657.65,189.91c-8.93-9.96-19.87-17.92-32.88-23.8c-12.98-5.91-28.15-8.87-45.47-8.87c-17.59,0-33.06,3.07-46.45,9.25
		c-13.39,6.18-24.6,14.43-33.65,24.81c-9.05,10.38-15.88,22.17-20.46,35.42c-4.58,13.25-6.89,26.96-6.89,41.13v7.48
		c0,13.66,2.31,27.08,6.89,40.36c4.58,13.25,11.41,25.07,20.46,35.42c9.05,10.38,20.46,18.77,34.24,25.19
		c13.78,6.42,29.83,9.64,48.22,9.64c13.13,0,25.25-1.77,36.4-5.32c11.15-3.55,20.99-8.46,29.51-14.75
		c8.52-6.3,15.61-13.98,21.26-23.03c5.65-9.05,9.64-19.1,12-30.1h-50.38c-2.37,7.86-7.75,14.52-16.14,19.87
		c-8.4,5.38-19.28,8.07-32.67,8.07c-18.09,0-31.87-5.11-41.33-15.35s-15.08-23.74-16.91-40.54h161.02v-19.69
		c0-14.16-2.25-27.76-6.68-40.74C1673.27,211.34,1666.55,199.87,1657.65,189.91z M1524.63,251.32c2.87-15.49,8.84-27.5,17.92-36.01
		c9.05-8.52,21.32-12.8,36.81-12.8c15.49,0,27.62,4.26,36.4,12.8c8.78,8.52,14.22,20.55,16.32,36.01H1524.63z"/>
	<path d="M1900.37,181.72c-13.13-16.32-32.4-24.48-57.86-24.48h-2.37c-39.62,0-64.01,20.08-73.21,60.23v-52.75h-43.29v213.71h54.7
		V252.29c0-13.96,4.14-25.1,12.39-33.41c8.28-8.31,19.1-12.45,32.46-12.45c13.13,0,23.42,4.02,30.9,12.06
		c7.48,8.04,11.21,18.77,11.21,32.23v127.7h54.7V255.57C1920.06,222.67,1913.5,198.07,1900.37,181.72z"/>
</g>
</svg>
